<svg width="15" height="15" viewBox="0 0 15 15" fill="none" xmlns="http://www.w3.org/2000/svg">
<g clip-path="url(#clip0_50_26)">
<path d="M14.8213 7.64032C14.8213 7.02578 14.7714 6.57733 14.6635 6.11227H7.646V8.88601H11.7651C11.6821 9.57532 11.2336 10.6134 10.237 11.311L10.2231 11.4038L12.4419 13.1227L12.5956 13.1381C14.0074 11.8342 14.8213 9.9158 14.8213 7.64032Z" fill="#4285F4"/>
<path d="M7.646 14.9485C9.66401 14.9485 11.3582 14.2841 12.5956 13.1381L10.237 11.311C9.6059 11.7511 8.7588 12.0584 7.646 12.0584C5.66949 12.0584 3.99195 10.7546 3.39396 8.95248L3.3063 8.95992L0.999166 10.7454L0.968994 10.8293C2.19808 13.2709 4.72272 14.9485 7.646 14.9485Z" fill="#34A853"/>
<path d="M3.39395 8.95248C3.23616 8.48742 3.14484 7.9891 3.14484 7.47424C3.14484 6.95931 3.23616 6.46105 3.38565 5.99599L3.38147 5.89695L1.04542 4.08275L0.968986 4.1191C0.462421 5.13229 0.171753 6.27006 0.171753 7.47424C0.171753 8.67842 0.462421 9.81613 0.968986 10.8293L3.39395 8.95248Z" fill="#FBBC05"/>
<path d="M7.646 2.89002C9.04947 2.89002 9.99619 3.49626 10.536 4.00288L12.6454 1.9433C11.3499 0.739122 9.66401 0 7.646 0C4.72272 0 2.19808 1.67754 0.968994 4.1191L3.38565 5.99599C3.99195 4.19387 5.66949 2.89002 7.646 2.89002Z" fill="#EB4335"/>
</g>
<defs>
<clipPath id="clip0_50_26">
<rect width="15" height="15" fill="white"/>
</clipPath>
</defs>
</svg>
