<svg width="430" height="478" viewBox="0 0 430 478" fill="none" xmlns="http://www.w3.org/2000/svg">
<path d="M234.23 312.679C228.776 309.498 218.064 303.194 205.684 295.9C205.402 295.734 205.168 295.497 205.005 295.213C204.841 294.929 204.755 294.607 204.754 294.279V274.887L115.673 326.387V344.156C115.674 344.486 115.761 344.809 115.926 345.094C116.091 345.38 116.328 345.617 116.613 345.782C131.212 354.266 143.595 361.463 148.585 364.348C148.87 364.516 149.195 364.603 149.525 364.601C149.856 364.599 150.18 364.507 150.462 364.336C160.872 358.103 209.038 330.452 234.228 315.912C234.512 315.748 234.748 315.512 234.912 315.229C235.075 314.945 235.162 314.623 235.162 314.296C235.162 313.968 235.076 313.646 234.913 313.363C234.749 313.079 234.513 312.843 234.23 312.679Z" fill="#CFCFCF"/>
<path d="M289.308 6.85217C289.308 56.4313 289.308 153.991 289.32 224.02C289.322 224.624 289.165 225.218 288.863 225.741C288.561 226.264 288.126 226.698 287.602 226.998C215.605 268.606 80.9805 346.449 11.3429 386.701C10.5582 387.156 9.66733 387.396 8.76017 387.397C7.85302 387.398 6.96163 387.16 6.17588 386.706C5.39013 386.253 4.7378 385.6 4.28466 384.815C3.83152 384.029 3.59358 383.137 3.59484 382.23C3.59484 325.507 3.58445 232.227 3.57407 169.008C3.57411 168.103 3.81279 167.214 4.26604 166.431C4.71929 165.648 5.37107 164.999 6.15561 164.548C69.6553 127.842 251.101 22.9526 284.121 3.8724C284.645 3.57099 285.24 3.41239 285.845 3.41241C286.451 3.41244 287.045 3.57109 287.57 3.87256C288.095 4.17402 288.531 4.60777 288.836 5.13057C289.141 5.65337 289.304 6.24696 289.308 6.85217Z" fill="white"/>
<path d="M15.4118 384.348L3.59485 391.178C3.59485 378.696 3.59485 363.946 3.59485 347.815C71.037 308.832 215.034 225.577 289.311 182.65C289.311 197.805 289.311 212.442 289.311 226.004C219.123 266.577 86.6907 343.149 15.4118 384.348Z" fill="#CFCFCF"/>
<path d="M196.76 200.042L225.947 183.167C225.947 162.242 225.936 131.13 225.931 80.0771L196.75 96.9533C196.75 99.0794 196.757 167.154 196.76 200.042Z" fill="#4548F5"/>
<path d="M137.558 234.476L166.746 217.602C166.746 196.676 166.734 187.373 166.731 136.321L137.548 153.197C137.548 155.332 137.555 201.6 137.558 234.476Z" fill="#4548F5"/>
<path d="M78.7054 268.576L107.892 251.702C107.892 230.776 107.882 251.482 107.876 200.43L78.695 217.304C78.695 219.434 78.7019 235.697 78.7054 268.576Z" fill="#4548F5"/>
<path d="M285.845 6.85214C285.845 45.5204 285.845 84.1835 285.845 122.841C285.845 145.268 285.845 167.695 285.845 190.123C285.845 200.383 285.845 210.643 285.845 220.904C285.993 221.928 285.998 222.967 285.861 223.992C285.542 224.463 284.325 224.886 283.823 225.175L278.848 228.051L268.382 234.101C235 253.395 201.62 272.692 168.242 291.99L62.3141 353.236L18.0227 378.838L13.1367 381.667C11.9507 382.36 10.1725 383.918 8.80814 383.946C7.41435 383.965 7.11135 382.843 7.06114 381.709C6.95899 379.377 7.06114 377.017 7.06114 374.683V346.114C7.06114 302.367 7.05653 258.62 7.04729 214.873C7.04729 204.422 7.04729 193.971 7.04729 183.521V176.148C6.86203 173.771 6.86203 171.382 7.04729 169.004C7.39357 166.941 11.433 165.495 13.128 164.515C23.9055 158.282 34.6824 152.053 45.4588 145.828C73.7801 129.451 102.105 113.076 130.433 96.704L217.982 46.093L279.113 10.753L283.31 8.32904L285.026 7.33521C285.321 7.19408 285.605 7.03025 285.875 6.84522C285.906 6.82098 285.849 6.80539 285.852 6.84522C286.198 11.2603 293.124 11.2967 292.778 6.84522C292.743 5.60035 292.379 4.38696 291.722 3.32878C291.065 2.27061 290.14 1.40551 289.04 0.821696C287.94 0.237885 286.705 -0.043749 285.46 0.00551211C284.216 0.0547733 283.007 0.433168 281.956 1.10211C280.654 1.82065 279.38 2.59113 278.092 3.33564L267.454 9.48563L236.808 27.2015L151.974 76.2456L61.4796 128.564L23.7347 150.38L8.4861 159.196C5.31934 161.026 1.82534 162.579 0.554479 166.314C0.0154449 168.752 -0.131839 171.261 0.118162 173.745V181.661C0.118162 226.37 0.12278 271.079 0.132014 315.789C0.132014 336.152 0.132014 356.515 0.132014 376.875C0.132014 381.562 -0.416846 386.744 4.21642 389.566C8.8497 392.388 12.9653 389.762 17.0289 387.412L38.1262 375.218L141.48 315.47C177.365 294.722 213.251 273.976 249.137 253.233L271.89 240.074L282.777 233.78C286.224 231.787 291.67 229.86 292.606 225.54C292.931 222.956 292.99 220.345 292.779 217.749V209.409C292.779 204.11 292.779 198.808 292.779 193.506C292.779 182.21 292.779 170.914 292.779 159.618C292.779 116.424 292.779 73.2312 292.779 30.0393V6.85214C292.771 2.39548 285.845 2.38855 285.845 6.85214Z" fill="#211715"/>
<path d="M5.34705 350.805L52.4416 323.578C71.7942 312.392 91.1457 301.205 110.496 290.017C131.425 277.919 152.354 265.82 173.281 253.721L233.707 218.79L285.546 188.827L291.072 185.633C294.93 183.405 291.446 177.417 287.577 179.653L237.263 208.741L177.552 243.26L114.67 279.619L55.7105 313.69L6.89493 341.912L1.85132 344.828C-2.00628 347.058 1.47733 353.045 5.34705 350.808V350.805Z" fill="#211715"/>
<path d="M198.507 203.023L214.047 194.039L221.246 189.884L225.194 187.602C226.613 186.781 228.437 186.102 229.112 184.499C229.496 182.995 229.597 181.434 229.41 179.893V175.667C229.41 172.583 229.41 169.5 229.41 166.418C229.41 150.311 229.41 134.204 229.41 118.097V80.0755C229.4 79.47 229.233 78.8773 228.925 78.3557C228.618 77.8341 228.18 77.4013 227.654 77.0999C227.129 76.7984 226.535 76.6386 225.929 76.636C225.323 76.6335 224.728 76.7883 224.2 77.0853L204.243 88.6252C201.196 90.3878 197.931 91.9842 195.017 93.9614C194.442 94.3616 193.981 94.905 193.68 95.5379C193.38 96.1707 193.25 96.8711 193.303 97.5697C193.19 102.179 193.303 106.803 193.303 111.421C193.303 130.506 193.303 149.592 193.303 168.681C193.303 179.135 193.303 189.59 193.303 200.047C193.303 204.504 200.228 204.511 200.228 200.047L200.218 106.897V96.9447L198.502 99.9331L227.683 83.0587L222.474 80.0686C222.474 109.291 222.478 138.515 222.487 167.739C222.487 172.878 222.487 178.018 222.487 183.159L224.203 180.169L195.015 197.043C191.154 199.273 194.646 205.26 198.507 203.023Z" fill="#211715"/>
<path d="M139.307 237.466L154.846 228.482L162.044 224.327L165.993 222.045C167.413 221.224 169.236 220.545 169.911 218.942C170.825 216.772 170.209 213.242 170.207 210.882C170.207 208.574 170.207 206.265 170.207 203.957C170.207 192.723 170.204 181.49 170.199 170.256C170.199 158.944 170.199 147.632 170.199 136.32C170.189 135.715 170.021 135.122 169.714 134.601C169.406 134.079 168.968 133.647 168.442 133.345C167.917 133.044 167.322 132.884 166.717 132.881C166.111 132.879 165.515 133.033 164.987 133.33C155.501 138.817 145.768 144.015 136.469 149.822C134.234 151.219 134.09 152.724 134.09 154.989V160.429V205.025C134.09 214.842 134.09 224.659 134.09 234.476C134.09 238.933 141.016 238.94 141.016 234.476C141.016 209.793 141.016 185.111 141.016 160.429C141.016 158.019 141.016 155.608 141.016 153.197L139.302 156.185L168.483 139.311L163.268 136.326C163.268 159.18 163.272 182.035 163.28 204.89C163.28 209.127 163.28 213.364 163.28 217.6L164.996 214.61C155.265 220.234 145.536 225.858 135.808 231.484C131.953 233.716 135.432 239.703 139.307 237.466Z" fill="#211715"/>
<path d="M80.4524 271.567L95.9919 262.582L103.191 258.427L107.139 256.143C108.558 255.322 110.382 254.644 111.057 253.04C111.862 251.136 111.355 248.135 111.355 246.044C111.355 244.805 111.355 243.567 111.355 242.328C111.355 237.799 111.352 233.27 111.346 228.742C111.346 219.306 111.346 209.87 111.346 200.435C111.337 199.828 111.171 199.234 110.863 198.711C110.555 198.188 110.116 197.755 109.59 197.453C109.063 197.151 108.468 196.992 107.861 196.99C107.254 196.989 106.657 197.145 106.129 197.445L83.7282 210.397L78.6119 213.356C76.8805 214.357 75.3603 215.197 75.2322 217.401C75.1958 218.002 75.2322 218.613 75.2322 219.215C75.2322 227.119 75.2322 235.022 75.2322 242.926C75.2322 251.479 75.2322 260.031 75.2322 268.582C75.2322 273.038 82.1579 273.047 82.1579 268.582C82.1579 251.491 82.1544 234.401 82.1475 217.309L80.442 220.299L109.634 203.42L104.422 200.43C104.422 214.527 104.427 228.623 104.436 242.719C104.436 245.715 104.436 248.709 104.436 251.702L106.152 248.712C96.4236 254.337 86.6942 259.961 76.9636 265.586C73.1008 267.818 76.5827 273.8 80.4524 271.567Z" fill="#211715"/>
<path d="M112.21 326.852V341.453C112.21 344.094 112.049 346.703 114.475 348.471C116.929 350.097 119.465 351.596 122.072 352.962L129.379 357.208C133.408 359.548 137.438 361.889 141.468 364.229C144.698 366.104 148.365 369.26 152.202 367.328C156.41 365.214 160.416 362.501 164.495 360.137C178.857 351.801 193.24 343.498 207.644 335.229C214.926 331.036 222.209 326.84 229.491 322.643C232.595 320.853 238.285 318.883 238.565 314.765C238.872 310.272 233.961 308.513 230.719 306.612C225.812 303.733 220.906 300.848 216.002 297.955L211.805 295.484L209.635 294.207L208.536 293.557C208.015 293.112 207.907 293.351 208.212 294.274C208.004 294.072 208.212 292.522 208.212 292.274V276.124C208.212 271.667 201.286 271.66 201.286 276.124C201.286 282.132 200.969 288.223 201.286 294.22C201.489 298.042 204.676 299.325 207.59 301.04L217.757 307.026C220.586 308.689 223.414 310.353 226.241 312.016L229.877 314.151C230.388 314.449 230.895 314.805 231.435 315.058C233.099 315.851 231.048 314.632 231.636 313.846L232.879 312.605C229.435 314.931 225.842 317.03 222.124 318.886C218.027 321.248 213.93 323.608 209.831 325.966C201.311 330.873 192.792 335.778 184.273 340.683C176.762 345.015 169.26 349.353 161.765 353.698C158.963 355.324 156.165 356.954 153.369 358.586C152.381 359.163 151.393 359.744 150.405 360.328C150.058 360.502 149.723 360.7 149.404 360.922C149.221 361.014 149.044 361.12 148.875 361.237C150.12 361.406 150.427 361.341 149.796 361.041L149.212 360.703C144.975 358.249 140.741 355.792 136.51 353.331L127.628 348.171C124.289 346.482 121.062 344.581 117.965 342.48L119.207 343.722C119.321 343.871 119.167 344.371 119.131 343.495C119.108 342.918 119.131 342.336 119.131 341.763V326.844C119.131 322.387 112.205 322.38 112.205 326.844L112.21 326.852Z" fill="#211715"/>
<path d="M32.3433 213.637C54.4004 193.183 76.4078 172.676 98.3656 152.116C101.617 149.053 96.7121 144.164 93.4675 147.22C71.572 167.844 49.5645 188.351 27.4451 208.74C24.171 211.777 29.0761 216.667 32.3433 213.637Z" fill="#211715"/>
<path d="M151.042 351.887C168.407 341.724 185.903 331.784 203.309 321.695C206.785 319.679 210.265 317.671 213.718 315.616C217.544 313.339 214.064 307.35 210.222 309.637C193.039 319.861 175.609 329.68 158.293 339.679C154.708 341.757 151.12 343.815 147.547 345.912C143.703 348.163 147.185 354.152 151.042 351.892V351.887Z" fill="#211715"/>
<path d="M423.47 445.177L421.739 444.242C416.261 446.881 398.995 447.205 395.724 444.84C389.481 452.02 380.488 453.059 372.388 451.972C371.281 451.887 370.189 451.668 369.135 451.32C366.239 450.34 363.571 448.785 361.292 446.748C361.269 446.725 361.238 446.713 361.217 446.689L360.222 446.781C358.887 445.979 354.816 446.805 353.147 449.316C351.478 451.826 351.539 456.662 352.48 459.531C354.534 465.764 360.544 468.936 366.725 471.164C373.099 473.574 380.012 474.189 386.712 472.944C388.122 472.593 389.443 471.951 390.591 471.06C391.739 470.168 392.687 469.047 393.376 467.767C394.184 466.251 394.701 464.598 394.898 462.892L405.531 465.336C407.699 465.895 409.927 466.181 412.166 466.188C413.226 466.181 414.285 466.119 415.339 466.005C416.895 465.92 418.413 465.491 419.783 464.749C421.152 464.007 422.34 462.97 423.261 461.712C424.313 459.702 424.848 457.462 424.819 455.194C424.878 452.913 423.397 447.449 423.47 445.177Z" fill="white"/>
<path d="M393.87 209.462C393.58 210.844 393.037 212.159 392.268 213.343C390.663 215.705 388.48 217.619 385.928 218.902C388.179 222.972 391.248 226.532 394.941 229.358C398.634 232.184 402.872 234.216 407.389 235.325C405.762 236.801 404.423 238.566 403.438 240.529C399.572 240.278 395.69 240.578 391.908 241.419C382.372 243.274 369.227 247.602 365.788 249.836C363.611 251.309 361.68 253.116 360.064 255.189L362.266 248.09C363.114 245.491 363.133 242.691 362.318 240.081C361.249 237.523 359.335 235.409 356.896 234.092L357.806 229.178C357.787 229.163 357.77 229.144 357.753 229.126C353.398 224.564 350.484 218.819 349.376 212.61C348.323 207.114 348.413 201.46 349.64 196C350.868 190.541 353.206 185.392 356.509 180.875C358.024 178.828 359.733 176.932 361.614 175.215C367.195 184.967 375.059 193.22 384.531 199.264C386.193 198.857 387.943 199.011 389.509 199.702C391.074 200.393 392.368 201.582 393.188 203.084C394.131 205.071 394.372 207.32 393.87 209.462Z" fill="white"/>
<path d="M353.265 232.66C351.345 232.182 349.341 232.153 347.407 232.573C344.622 233.187 342.157 234.796 340.475 237.098C338.792 239.401 338.009 242.238 338.271 245.078L338.506 248.527C339.023 248.552 339.531 248.67 340.007 248.873C343.612 250.575 353.805 256.247 356.473 257.982L357.512 258.631C359.453 255.603 361.866 252.904 364.659 250.637L362.263 248.09C363.111 245.491 363.129 242.691 362.315 240.081C361.499 238.218 360.253 236.574 358.68 235.285C357.107 233.995 355.252 233.095 353.265 232.66Z" fill="white"/>
<path d="M380.046 165.76C373.164 167.208 366.795 170.474 361.602 175.217C367.194 184.962 375.061 193.209 384.531 199.256C386.193 198.849 387.943 199.003 389.509 199.693C391.074 200.384 392.368 201.573 393.188 203.075C393.918 204.723 394.218 206.53 394.058 208.325C393.898 210.121 393.284 211.846 392.274 213.339C390.668 215.702 388.485 217.616 385.933 218.899C388.184 222.968 391.251 226.527 394.944 229.353C398.636 232.179 402.873 234.211 407.389 235.321C407.553 235.148 407.723 234.975 407.9 234.774C412.709 229.483 416.174 225.797 419.117 220.599C423.303 213.321 424.976 204.868 423.879 196.544C421.483 179.874 407.307 165.924 390.485 164.972C386.986 164.772 383.476 165.037 380.046 165.76Z" fill="#7A7473"/>
<path d="M366.479 197.272C366.366 198.078 366.075 198.849 365.628 199.529C365.181 200.209 364.589 200.782 363.894 201.205C362.913 201.721 361.771 201.838 360.706 201.531C359.979 201.336 359.307 200.972 358.747 200.469C358.186 199.966 357.752 199.338 357.479 198.636C357.092 197.515 357.07 196.3 357.417 195.165C357.764 194.031 358.462 193.036 359.41 192.323C360.329 191.682 361.458 191.412 362.568 191.569C363.679 191.726 364.689 192.297 365.395 193.168C365.869 193.729 366.212 194.388 366.399 195.098C366.587 195.808 366.614 196.55 366.479 197.272Z" fill="#211715"/>
<path d="M408.13 346.501C410.086 346.196 412.093 345.875 414.15 345.538C416.938 345.083 421.64 343.85 423.153 342.034C425.077 339.724 424.978 337.283 425.082 333.846C425.879 307.405 427.416 287.691 422.797 265.134C421.351 258.074 419.334 250.733 414.282 245.595C409.229 240.458 402.799 239.3 391.906 241.419C382.37 243.274 369.225 247.602 365.786 249.836C362.476 252.204 359.661 255.197 357.5 258.645L356.471 257.977C353.803 256.245 343.61 250.57 340.006 248.868C339.235 248.557 338.399 248.442 337.573 248.534C336.512 248.688 335.983 249.881 335.668 250.906C333.152 259.78 331.265 268.821 330.024 277.961C328.423 287.212 328.251 296.653 329.515 305.956C329.809 307.731 330.452 309.429 331.409 310.952C332.365 312.476 333.615 313.794 335.085 314.83C337.661 316.982 341.512 316.755 344.781 316.01C348.166 315.218 351.38 313.821 354.269 311.888L354.151 323.305C354.139 328.684 354.375 334.852 354.375 334.852C354.257 337.754 355.78 342.643 358.158 344.277C360.274 345.737 363.096 346.393 369.445 347.548C382.424 349.906 394.067 348.693 408.13 346.501Z" fill="white"/>
<path d="M384.351 348.831C379.355 348.866 374.366 348.436 369.45 347.548C362.304 346.25 359.628 345.579 357.394 343.689C357.264 359.287 358.499 420.534 359.707 442.797L360.078 444.644C360.611 447.312 364.753 449.582 369.125 451.319C370.179 451.667 371.271 451.885 372.378 451.97C380.47 453.057 389.47 452.018 395.714 444.838C399.715 447.731 424.66 446.602 423.352 442.137C422.547 420.015 421.838 375.318 422.487 355.48C422.487 355.48 422.314 348.674 422.161 342.892C419.673 344.247 416.962 345.143 414.157 345.538C404.323 347.413 394.357 348.514 384.351 348.831Z" fill="#CFCFCF"/>
<path d="M353.937 347.976C354.014 373.746 354.66 399.532 355.528 425.287C355.725 431.198 355.94 437.109 356.26 443.015C356.502 447.447 363.43 447.475 363.186 443.015C361.787 417.29 361.435 391.476 361.047 365.721C360.957 359.807 360.874 353.892 360.862 347.976C360.848 343.521 353.923 343.512 353.937 347.976Z" fill="#211715"/>
<path d="M419.019 355.48C418.252 379.598 418.854 403.812 419.464 427.929C419.609 433.679 419.774 439.429 420.007 445.177C420.181 449.619 427.106 449.641 426.933 445.177C425.953 421.054 425.629 396.871 425.699 372.73C425.716 366.98 425.763 361.228 425.944 355.48C426.086 351.021 419.161 351.026 419.019 355.48Z" fill="#211715"/>
<path d="M391.855 380.048C390.875 399.094 390.355 418.211 390.158 437.282C390.123 440.572 390.007 443.896 390.253 447.179C390.584 451.596 397.513 451.632 397.179 447.179C396.625 439.791 397.134 432.226 397.302 424.833C397.546 414.049 397.867 403.267 398.264 392.487C398.415 388.332 398.567 384.194 398.784 380.048C399.012 375.595 392.087 375.607 391.858 380.048H391.855Z" fill="#211715"/>
<path d="M356.738 445.557C357.604 448.94 360.755 451.13 363.691 452.655C365.449 453.648 367.319 454.427 369.261 454.976C371.126 455.363 373.019 455.604 374.921 455.698C382.328 456.442 389.738 454.317 395.624 449.761C396.268 449.109 396.629 448.229 396.629 447.312C396.629 446.396 396.268 445.516 395.624 444.864C394.964 444.234 394.087 443.883 393.175 443.883C392.263 443.883 391.386 444.234 390.726 444.864C386.444 447.933 381.193 449.344 375.95 448.834C373.279 448.818 370.641 448.253 368.198 447.174C366.89 446.613 365.651 445.903 364.505 445.058C364.165 444.767 363.846 444.454 363.549 444.12C363.696 444.293 363.656 444.212 363.43 443.877C363.536 444.163 363.532 444.111 363.416 443.723C362.306 439.41 355.625 441.239 356.738 445.564V445.557Z" fill="#211715"/>
<path d="M396.124 448.784C400.546 449.887 405.121 450.238 409.659 449.823C414.391 449.86 419.085 448.982 423.484 447.238C424.271 446.769 424.843 446.01 425.075 445.124C425.307 444.237 425.182 443.295 424.726 442.501C424.248 441.723 423.489 441.16 422.606 440.929C421.724 440.697 420.786 440.815 419.988 441.258C419.365 441.548 420.799 440.986 420.101 441.214C419.928 441.27 419.768 441.337 419.601 441.387C419.197 441.524 418.785 441.644 418.373 441.753C417.415 442.004 416.441 442.193 415.464 442.352L414.737 442.463C414.321 442.527 415.289 442.402 414.605 442.482C414.034 442.547 413.464 442.613 412.891 442.667C411.707 442.782 410.521 442.861 409.333 442.904C407.075 443.005 404.813 442.984 402.556 442.842C402.086 442.809 401.615 442.771 401.144 442.724C400.877 442.698 400.61 442.66 400.344 442.636C401.28 442.721 400.437 442.648 400.262 442.62C399.486 442.502 398.718 442.328 397.966 442.101C397.528 441.98 397.07 441.946 396.618 442.002C396.167 442.059 395.731 442.203 395.335 442.428C394.939 442.652 394.592 442.953 394.312 443.312C394.033 443.67 393.826 444.081 393.705 444.52C393.585 444.958 393.551 445.416 393.607 445.868C393.663 446.319 393.808 446.755 394.032 447.151C394.257 447.547 394.557 447.894 394.916 448.174C395.275 448.453 395.686 448.66 396.124 448.781V448.784Z" fill="#211715"/>
<path d="M361.958 443.789C360.586 443.217 359.097 442.983 357.616 443.106C356.135 443.23 354.705 443.707 353.447 444.497C352.007 445.378 350.804 446.597 349.94 448.047C349.077 449.497 348.58 451.136 348.491 452.822C348.11 456.2 348.685 459.618 350.15 462.686C351.614 465.754 353.911 468.35 356.778 470.177C363.228 474.348 370.68 476.709 378.355 477.013C385.665 477.382 393.56 475.834 396.855 468.493C399.684 462.187 398.545 454.75 397.049 448.261C396.046 443.919 389.368 445.757 390.369 450.102C391.21 453.399 391.634 456.789 391.633 460.192C391.634 461.211 391.533 462.227 391.33 463.226C391.224 463.697 391.112 464.164 390.966 464.625C390.921 464.767 390.421 465.986 390.755 465.269C387.784 471.675 378.689 470.609 372.954 469.353C367.329 468.122 359.853 465.75 356.698 460.485C355.32 458.11 354.893 455.3 355.503 452.623C355.557 452.132 355.739 451.664 356.031 451.266C356.322 450.868 356.713 450.553 357.164 450.353C357.628 450.136 358.182 450.131 358.636 449.925C358.854 449.825 359.105 450.076 358.462 449.769C362.462 451.688 365.98 445.718 361.958 443.789Z" fill="#211715"/>
<path d="M420.007 445.178C420.146 447.785 420.519 450.376 421.121 452.917C421.207 453.262 421.265 453.613 421.294 453.968C421.294 453.057 421.266 453.764 421.294 454.004C421.345 454.497 421.361 454.992 421.341 455.486C421.323 455.907 421.283 456.323 421.252 456.742C421.192 457.554 421.353 456.383 421.2 457.123C421.11 457.557 421.027 457.988 420.915 458.419C420.878 458.548 420.553 459.522 420.665 459.24C420.778 458.958 420.328 459.844 420.271 459.959C420.04 460.286 420.04 460.302 420.271 460.005C420.175 460.123 420.075 460.239 419.969 460.352C419.726 460.613 419.467 460.858 419.194 461.087C419.737 460.63 418.898 461.261 418.764 461.345C418.453 461.534 418.131 461.692 417.803 461.865C417.438 462.038 417.424 462.038 417.763 461.882C417.616 461.938 417.467 461.991 417.319 462.04C416.619 462.259 415.906 462.432 415.184 462.559C414.927 462.6 414.978 462.593 415.334 462.538C415.075 462.564 414.815 462.59 414.553 462.611C414.122 462.648 413.688 462.677 413.258 462.696C412.453 462.731 411.648 462.732 410.845 462.696C410.455 462.677 410.069 462.637 409.681 462.609C409.265 462.56 409.238 462.56 409.602 462.609L409.098 462.533C408.206 462.39 407.325 462.201 406.445 461.997C406.007 461.876 405.549 461.842 405.097 461.899C404.646 461.955 404.21 462.099 403.815 462.324C403.419 462.548 403.072 462.849 402.792 463.208C402.513 463.566 402.307 463.977 402.186 464.415C402.065 464.854 402.032 465.312 402.088 465.763C402.144 466.214 402.289 466.65 402.513 467.046C402.738 467.441 403.038 467.789 403.397 468.068C403.756 468.348 404.166 468.554 404.605 468.675C411.775 470.352 422.014 470.595 426.325 463.325C427.98 460.261 428.613 456.749 428.129 453.301C427.913 451.617 427.61 449.951 427.304 448.28C427.24 447.915 427.175 447.55 427.115 447.183C427.086 447.008 427.058 446.835 427.032 446.663C426.975 446.265 426.98 446.317 427.051 446.836C426.918 446.298 426.88 445.741 426.938 445.19C426.938 444.271 426.573 443.39 425.924 442.741C425.275 442.092 424.394 441.727 423.475 441.727C422.557 441.727 421.676 442.092 421.027 442.741C420.377 443.39 420.013 444.271 420.013 445.19L420.007 445.178Z" fill="#211715"/>
<path d="M369.547 290.662C364.858 297.121 359.882 303.913 353.209 308.463C350.052 310.717 346.432 312.24 342.613 312.921C340.862 313.243 339.054 312.97 337.476 312.146C335.898 311.322 334.641 309.994 333.904 308.373C333.123 306.723 332.68 304.933 332.604 303.11C332.315 300.512 332.166 297.893 332.135 295.277C332.08 290.061 332.448 284.85 333.236 279.694C333.97 274.865 334.766 270.038 335.71 265.247C336.179 262.852 336.693 260.466 337.277 258.098C337.601 256.782 337.948 255.472 338.316 254.169C338.463 253.65 338.617 253.13 338.771 252.611C338.876 252.322 338.964 252.027 339.033 251.728C339.157 251.333 338.869 251.414 338.167 251.97C338.167 251.936 341.197 253.347 341.443 253.477C343.174 254.387 344.893 255.324 346.606 256.271C349.34 257.785 352.101 259.286 354.733 260.974C358.495 263.398 361.972 257.397 358.229 254.993C355.363 253.155 352.342 251.531 349.369 249.888C346.346 248.224 342.757 245.621 339.282 245.156C332.529 244.252 331.586 252.159 330.414 257.05C329.028 262.856 328.028 268.746 327.077 274.636C326.024 280.636 325.404 286.703 325.221 292.792C325.178 295.554 325.256 298.317 325.486 301.068C325.562 304.016 326.055 306.937 326.951 309.746C328.682 314.182 332.706 318.678 337.512 319.691C342.386 320.718 347.605 319.172 352.011 317.136C362.149 312.461 369.164 302.947 375.538 294.165C375.994 293.37 376.119 292.428 375.886 291.542C375.654 290.656 375.082 289.896 374.295 289.428C373.497 288.984 372.559 288.866 371.677 289.097C370.794 289.328 370.035 289.892 369.557 290.669L369.547 290.662Z" fill="#211715"/>
<path d="M365.606 249.006C366.868 245.506 366.752 241.657 365.281 238.24C363.81 234.822 361.095 232.092 357.685 230.603C351.305 227.625 343.25 228.413 338.517 234.017C335.909 237.093 334.581 241.052 334.808 245.078C334.828 245.99 335.199 246.859 335.844 247.504C336.489 248.149 337.359 248.521 338.271 248.54C339.186 248.532 340.062 248.164 340.71 247.517C341.357 246.869 341.725 245.993 341.734 245.078C341.708 244.631 341.694 244.184 341.709 243.736C341.709 243.59 341.872 242.288 341.746 243.031C341.883 242.301 342.071 241.582 342.307 240.877C342.452 240.5 342.452 240.485 342.307 240.834C342.393 240.645 342.48 240.458 342.58 240.273C342.722 239.998 342.878 239.728 343.042 239.466C343.119 239.343 343.872 238.375 343.408 238.916C343.678 238.6 343.953 238.296 344.251 238.008C344.476 237.792 344.707 237.586 344.944 237.388C344.4 237.833 345.409 237.092 345.524 237.021C345.889 236.8 346.265 236.602 346.649 236.417C346.048 236.708 346.969 236.298 347.032 236.277C347.453 236.132 347.883 236.01 348.318 235.912C348.528 235.865 348.737 235.823 348.948 235.787C348.558 235.832 348.57 235.832 348.985 235.787C349.734 235.741 350.486 235.741 351.236 235.787C351.651 235.83 351.665 235.83 351.281 235.787C351.494 235.822 351.706 235.86 351.918 235.905C352.236 235.972 352.553 236.049 352.867 236.138C353.284 236.256 353.694 236.396 354.101 236.549C353.471 236.313 354.636 236.808 354.754 236.871C355.041 237.02 355.323 237.181 355.6 237.35C355.704 237.414 356.75 238.138 356.222 237.735C356.799 238.21 357.343 238.726 357.848 239.277C358.104 239.589 358.123 239.603 357.91 239.321C358.037 239.494 358.158 239.667 358.275 239.84C358.511 240.199 358.701 240.574 358.916 240.943C359.262 241.547 358.859 240.536 359.089 241.322C359.239 241.783 359.355 242.254 359.436 242.732C359.373 242.249 359.449 243.381 359.451 243.512C359.451 243.964 359.429 244.409 359.406 244.859C359.358 245.297 359.355 245.368 359.397 245.072C359.359 245.318 359.316 245.561 359.268 245.803C359.174 246.262 359.056 246.712 358.921 247.161C358.677 248.046 358.795 248.992 359.248 249.791C359.701 250.59 360.454 251.176 361.339 251.421C362.225 251.665 363.171 251.547 363.97 251.094C364.769 250.641 365.355 249.888 365.599 249.003L365.606 249.006Z" fill="#211715"/>
<path d="M350.694 323.305C350.694 327.143 350.817 330.977 350.915 334.814C350.83 339.035 352.35 343.131 355.169 346.274C357.626 348.653 361.314 349.461 364.545 350.126C369.614 351.218 374.761 351.913 379.939 352.204C390.606 352.704 401.244 351.099 411.747 349.418C415.958 348.745 420.724 348.177 424.287 345.609C428.415 342.636 428.431 337.601 428.571 333.006C429.199 312.428 430.552 291.779 427.411 271.329C425.937 261.729 424.031 251.046 417.211 243.653C411.272 237.215 402.956 236.315 394.703 237.465C384.831 238.837 375.209 241.628 366.134 245.751C361.71 248.111 357.972 251.578 355.285 255.813C351.722 260.829 348.635 266.167 346.064 271.757C345.626 272.556 345.51 273.492 345.741 274.374C345.972 275.255 346.532 276.015 347.305 276.496C348.1 276.952 349.043 277.077 349.929 276.845C350.816 276.612 351.575 276.04 352.044 275.253C354.1 270.811 356.473 266.523 359.143 262.421C361.465 258.867 364.065 254.931 367.776 252.686C370.291 251.319 372.944 250.226 375.692 249.425C379.683 248.066 383.739 246.878 387.834 245.872C394.396 244.259 402.837 242.091 409.077 245.826C416.003 249.972 418.065 259.097 419.545 266.416C423.12 284.111 422.715 302.159 422.097 320.105C421.923 325.157 421.755 330.21 421.593 335.262C421.548 336.678 421.644 338.683 420.555 339.79C419.349 340.673 417.951 341.258 416.475 341.493C411.953 342.554 407.37 343.336 402.752 343.834C398.147 344.496 393.513 345.019 388.864 345.247C383.852 345.528 378.826 345.364 373.843 344.757C369.562 344.424 365.344 343.526 361.299 342.086C360.23 341.604 359.381 340.739 358.92 339.662C358.228 338.153 357.864 336.515 357.85 334.855C357.749 331.004 357.624 327.159 357.626 323.308C357.626 318.852 350.701 318.843 350.701 323.308L350.694 323.305Z" fill="#211715"/>
<path d="M406.845 241.527C408.75 238.787 410.922 236.244 413.329 233.934C416 231.062 418.446 227.989 420.646 224.742C425.127 217.93 427.572 209.981 427.695 201.829C427.643 194.877 425.833 188.051 422.433 181.986C419.033 175.922 414.155 170.817 408.251 167.145C396.176 159.632 380.796 159.873 368.319 166.328C361.612 169.912 355.954 175.182 351.904 181.618C347.854 188.055 345.551 195.436 345.222 203.034C344.396 220.202 355.374 240.086 374.636 239.504C379.082 239.369 379.101 232.442 374.636 232.579C360.372 233.011 352.396 218.526 352.112 205.88C351.943 199.438 353.466 193.064 356.528 187.394C359.589 181.723 364.084 176.954 369.563 173.562C379.567 167.529 392.554 166.4 402.963 172.074C407.925 174.778 412.139 178.668 415.232 183.397C418.324 188.126 420.197 193.547 420.684 199.176C421.131 207.106 418.95 214.962 414.477 221.525C412.331 224.585 409.958 227.478 407.378 230.182C404.94 232.563 402.755 235.189 400.856 238.019C398.59 241.868 404.574 245.356 406.837 241.514L406.845 241.527Z" fill="#211715"/>
<path d="M359.898 179.121C365.58 188.196 373.155 195.936 382.105 201.811C382.899 202.268 383.842 202.394 384.729 202.161C385.615 201.929 386.374 201.356 386.842 200.568C387.285 199.771 387.404 198.833 387.172 197.95C386.941 197.068 386.378 196.309 385.601 195.831C384.562 195.148 383.539 194.438 382.533 193.703C382.294 193.53 382.056 193.357 381.819 193.172L381.535 192.957C381.719 193.101 381.719 193.101 381.535 192.957C381.022 192.555 380.514 192.146 380.012 191.729C378.141 190.178 376.352 188.529 374.653 186.791C372.953 185.051 371.363 183.219 369.838 181.322L369.618 181.043C369.76 181.228 369.758 181.228 369.618 181.043C369.445 180.808 369.261 180.57 369.085 180.333C368.73 179.856 368.384 179.376 368.046 178.893C367.294 177.826 366.575 176.739 365.887 175.631C365.423 174.838 364.664 174.261 363.775 174.028C362.887 173.795 361.942 173.925 361.149 174.388C360.356 174.852 359.779 175.611 359.546 176.5C359.313 177.389 359.443 178.333 359.906 179.126L359.898 179.121Z" fill="#211715"/>
<path d="M385.363 202.608C385.537 202.565 386.38 202.468 385.528 202.53C385.805 202.509 386.077 202.487 386.354 202.487C386.631 202.487 386.906 202.507 387.181 202.535C386.714 202.487 386.82 202.485 387.216 202.58C387.484 202.644 387.746 202.753 388.014 202.814C388.393 202.9 387.523 202.528 388.082 202.838C388.326 202.973 388.574 203.096 388.809 203.243C388.982 203.356 389.502 203.868 389.003 203.358C389.195 203.551 389.408 203.745 389.607 203.932C390.108 204.407 389.372 203.458 389.761 204.106C389.884 204.306 390.012 204.5 390.125 204.708C390.198 204.84 390.265 204.973 390.327 205.11C390.201 204.802 390.18 204.763 390.265 204.997C390.324 205.247 390.426 205.489 390.49 205.738C390.554 205.988 390.663 206.668 390.589 206.045C390.649 206.675 390.66 207.309 390.624 207.941C390.598 208.685 390.764 207.497 390.582 208.287C390.523 208.548 390.473 208.806 390.409 209.071C390.327 209.383 390.236 209.689 390.127 209.994C390.047 210.221 389.841 210.652 390.054 210.207C389.775 210.779 389.458 211.332 389.103 211.861C388.556 212.697 389.519 211.416 388.868 212.184C388.658 212.434 388.444 212.679 388.22 212.917C387.807 213.355 387.37 213.771 386.911 214.162C386.761 214.291 386.328 214.633 386.711 214.343C386.449 214.543 386.177 214.729 385.902 214.911C385.357 215.273 384.791 215.604 384.209 215.902C383.921 216.047 383.63 216.189 383.343 216.314C383.897 216.08 383.151 216.367 382.997 216.423C382.558 216.544 382.148 216.75 381.789 217.029C381.43 217.309 381.13 217.656 380.905 218.052C380.681 218.447 380.536 218.883 380.48 219.334C380.424 219.786 380.457 220.244 380.578 220.682C380.699 221.121 380.905 221.531 381.184 221.89C381.464 222.249 381.811 222.549 382.207 222.774C382.602 222.998 383.038 223.143 383.489 223.199C383.941 223.255 384.399 223.222 384.837 223.101C391.598 220.717 397.504 214.823 397.592 207.302C397.645 205.458 397.256 203.629 396.458 201.966C395.659 200.304 394.475 198.857 393.002 197.746C391.655 196.767 390.109 196.097 388.474 195.783C386.838 195.469 385.154 195.52 383.54 195.932C383.102 196.052 382.691 196.258 382.333 196.538C381.974 196.817 381.673 197.165 381.449 197.56C381.224 197.956 381.08 198.392 381.024 198.843C380.967 199.294 381.001 199.752 381.122 200.191C381.242 200.629 381.448 201.04 381.728 201.399C382.007 201.757 382.355 202.058 382.75 202.282C383.146 202.507 383.582 202.651 384.033 202.708C384.484 202.764 384.942 202.73 385.381 202.61L385.363 202.608Z" fill="#211715"/>
<path d="M384.025 222.484C388.812 229.889 396.026 235.398 404.43 238.067C405.316 238.304 406.26 238.183 407.057 237.729C407.855 237.275 408.442 236.526 408.691 235.643C408.913 234.758 408.785 233.821 408.334 233.027C407.882 232.234 407.142 231.645 406.267 231.384C405.372 231.09 404.497 230.75 403.616 230.414C404.393 230.71 403.521 230.371 403.414 230.323L402.906 230.092C402.484 229.897 402.066 229.694 401.654 229.481C399.984 228.594 398.376 227.594 396.843 226.488C396.42 226.191 397.471 226.997 396.777 226.439C396.604 226.295 396.417 226.15 396.24 226.004C395.884 225.708 395.534 225.407 395.191 225.097C394.498 224.474 393.836 223.822 393.203 223.141C392.882 222.794 392.57 222.445 392.267 222.091C392.113 221.918 391.962 221.731 391.813 221.548C391.756 221.48 391.264 220.855 391.553 221.231C391.842 221.607 391.358 220.969 391.306 220.898C391.164 220.705 391.023 220.511 390.887 220.315C390.58 219.879 390.288 219.435 390 218.989C389.771 218.596 389.466 218.252 389.104 217.978C388.741 217.703 388.328 217.502 387.889 217.386C387.449 217.271 386.99 217.243 386.54 217.305C386.089 217.367 385.655 217.517 385.262 217.746C384.87 217.976 384.526 218.281 384.251 218.643C383.976 219.005 383.775 219.418 383.66 219.858C383.544 220.298 383.517 220.757 383.579 221.207C383.64 221.658 383.79 222.092 384.02 222.484H384.025Z" fill="#211715"/>
</svg>
